# xmcd CD database file
#
# Track frame offsets:
#	150
#	24075
#	48812
#
# Disc length: 970 seconds
#
# Revision: 0
# Processed by: cddbd v1.5PL3 Copyright (c) Steve Scherf et al.
# Submitted via: CDex 1.51
#
DISCID=1303c803
DTITLE=桃乃未琴 - 空
DYEAR=1999
DGENRE=JPop
TTITLE0=空
TTITLE1=くちびるだけ
TTITLE2=空 (Mind Of Wings)
EXTD=YEAR: 1999
EXTT0=
EXTT1=
EXTT2=
PLAYORDER=
